# xmcd CD database file
#
# Track frame offsets:
#	183
#	13170
#	58820
#	73533
#
# Disc length: 1236 seconds
#
# Revision: 0
# Processed by: cddbd v1.5.2PL0 Copyright (c) Steve Scherf et al.
# Submitted via: CDex 1.70beta2
#
DISCID=3304d204
DTITLE=Muffin Men - Muffin Men
DYEAR=1993
DGENRE=Jazz
TTITLE0=Zoot Allures
TTITLE1=The Torture Never Stops
TTITLE2=Take Your Clothes Off When You Dance
TTITLE3=Blessed Relief
EXTD=YEAR: 1993
EXTT0=
EXTT1=
EXTT2=
EXTT3=
PLAYORDER=
